<?xml version="1.0" standalone="no"?><!DOCTYPE svg PUBLIC "-//W3C//DTD SVG 1.1//EN" "http://www.w3.org/Graphics/SVG/1.1/DTD/svg11.dtd"><svg t="1680148047107" class="icon" viewBox="0 0 1024 1024" version="1.1" xmlns="http://www.w3.org/2000/svg" p-id="18927" xmlns:xlink="http://www.w3.org/1999/xlink" width="64" height="64"><path d="M426.666667 938.666667v-170.666667a85.333333 85.333333 0 0 1 170.666666 0v170.666667h170.666667V512a42.666667 42.666667 0 0 0-20.693333-36.565333L554.666667 359.850667V256h85.333333V170.666667h-85.333333V85.333333h-85.333334v85.333334H384v85.333333h85.333333v103.850667l-192.64 115.584A42.666667 42.666667 0 0 0 256 512v426.666667h170.666667z m-298.666667 0h85.333333v-346.368l-104.405333 52.224A42.581333 42.581333 0 0 0 85.333333 682.666667v213.333333a42.666667 42.666667 0 0 0 42.666667 42.666667z m787.072-294.186667L810.666667 592.298667V938.666667h85.333333a42.666667 42.666667 0 0 0 42.666667-42.666667v-213.333333c0-16.170667-9.130667-30.933333-23.594667-38.186667z" p-id="18928" fill="#61009e"></path></svg>