<?xml version="1.0" standalone="no"?><!DOCTYPE svg PUBLIC "-//W3C//DTD SVG 1.1//EN" "http://www.w3.org/Graphics/SVG/1.1/DTD/svg11.dtd"><svg t="1679972791313" class="icon" viewBox="0 0 1280 1024" version="1.1" xmlns="http://www.w3.org/2000/svg" p-id="11372" xmlns:xlink="http://www.w3.org/1999/xlink" width="80" height="64"><path d="M928.92 493.36L704 358.4V256h96c17.68 0 32-14.32 32-32V160c0-17.68-14.32-32-32-32h-96V32c0-17.68-14.32-32-32-32h-64c-17.68 0-32 14.32-32 32v96h-96c-17.68 0-32 14.32-32 32v64c0 17.68 14.32 32 32 32h96v102.4l-224.92 134.96A63.994 63.994 0 0 0 320 548.24V1024h192v-192c0-70.7 57.3-128 128-128s128 57.3 128 128v192h192V548.24c0-22.48-11.8-43.32-31.08-54.88zM0 791.92V992c0 17.68 14.32 32 32 32h224V640L38.78 733.08A64.048 64.048 0 0 0 0 791.92z m1241.22-58.84L1024 640v384h224c17.68 0 32-14.32 32-32V791.92c0-25.6-15.26-48.74-38.78-58.84z" p-id="11373" fill="#61009e"></path></svg>