<?xml version="1.0" standalone="no"?><!DOCTYPE svg PUBLIC "-//W3C//DTD SVG 1.1//EN" "http://www.w3.org/Graphics/SVG/1.1/DTD/svg11.dtd"><svg t="1679973289589" class="icon" viewBox="0 0 1365 1024" version="1.1" xmlns="http://www.w3.org/2000/svg" p-id="16649" width="170.625" height="128" xmlns:xlink="http://www.w3.org/1999/xlink"><path d="M949.760853 896c20.096 14.762667 30.72 42.666667 30.72 42.666667H384.854187s10.624-27.904 30.72-42.666667h534.186666z m104.917334 0c25.6 60.885333 10.922667 128-50.688 128H361.38752c-61.610667 0-76.288-67.114667-50.688-128H127.830187A128.085333 128.085333 0 0 1 0.000853 767.616V128.426667A127.914667 127.914667 0 0 1 127.830187 0h1109.674666A128.085333 128.085333 0 0 1 1365.334187 128.384V767.573333A127.914667 127.914667 0 0 1 1237.504853 896h-182.826666zM85.334187 128.384V767.573333c0 23.893333 19.072 43.050667 42.496 43.050667h1109.674666A42.581333 42.581333 0 0 0 1280.000853 767.616V128.426667C1280.000853 104.490667 1260.928853 85.333333 1237.504853 85.333333H127.830187A42.581333 42.581333 0 0 0 85.334187 128.384z m42.666666 84.608C128.000853 166.058667 166.18752 128 213.206187 128h938.922666C1199.190187 128 1237.334187 166.101333 1237.334187 212.992v470.016c0 46.933333-38.186667 84.992-85.205334 84.992H213.206187A85.12 85.12 0 0 1 128.000853 683.008V212.992z m42.666667 0v470.016c0 23.296 19.029333 42.325333 42.538667 42.325333h938.922666c23.466667 0 42.538667-18.986667 42.538667-42.325333V212.992A42.453333 42.453333 0 0 0 1152.128853 170.666667H213.206187A42.453333 42.453333 0 0 0 170.66752 212.992z" fill="#61009e" p-id="16650"></path></svg>